<svg xmlns="http://www.w3.org/2000/svg">
   <g transform="scale(.6)">
      <path style="clip-rule:evenodd;fill-rule:evenodd;stroke:#000000;stroke-opacity:1" d="
m  43.101,54.363 
c   1.849,-0.218    5.153,1.017    4.138,-2.066 
   -0.121,-6.308   -0.405,-13.362  4.465,-18.180 
    6.715,-7.957   20.469,-7.265  26.401,1.270 
    4.423,5.387     3.264,12.540   3.416,18.975 
    2.282,-0.300    5.519,-0.124   4.632,3.058 
   -0.070,8.996     0.140,18.020  -0.105,26.998 
C  84.366,86.047   81.504,84.884  79.307,85.236 
   67.069,85.165   54.802,85.377  42.582,85.130 
   40.952,83.449   42.116,80.586  41.765,78.389 
   41.834,70.656   41.624,62.895  41.870,55.179
   42.070,54.695   42.574,54.355  43.101,54.363 
Z 
M  16.682,22.204 
C   0.333,42.212   -0.434,73.216  15.364,93.771 
   28.461,111.712  51.789,122.092 73.849,117.715 
  101.119,112.880 123.381,87.154 122.879,59.225 
  122.728,34.026  105.840,8.591   80.942,1.935 
   73.989,0.150    66.459,-0.842  59.418,0.775 
   53.809,5.548    62.252,9.520   66.742,7.321 
   84.448,7.033   100.995,18.233 108.888,33.814 
  117.899,49.839  117.924,70.709 107.782,86.232 
   96.985,103.559  75.804,114.375 55.399,110.688 
   31.205,106.838  11.076,84.425  11.244,59.676 
   11.098,47.549   15.225,35.331  23.023,26.003 
c   0.363,5.357     0.040,10.826   0.870,16.108 
    2.176,4.510     8.477,0.895    6.906,-3.391 
C  30.478,31.244   30.354,23.752  29.911,16.287 
   28.821,12.289   24.352,13.782  21.423,14.148 
   15.099,15.085    8.738,15.833   2.436,16.889 
   -2.458,18.623    1.027,25.847   5.525,23.772 
    9.244,23.249   12.963,22.726  16.682,22.204 
Z 
m  37.217,32.159 
c   6.987,0        13.975,0       20.963,0 
C  74.564,48.589   76.289,41.569  71.037,37.449 
   65.089,32.014   54.400,36.443  53.954,44.461 
   53.836,47.757   53.930,51.065  53.899,54.363 
Z     
m  10.566,15.432    
c   0.705,3.254     1.410,6.509    2.116,9.764 
   -1.682,-0.397   -5.322,0.861   -5.682,-0.654 
    0.528,-3.072    1.056,-6.144   1.584,-9.216 
   -7.916,-3.252    3.016,-12.372  5.050,-4.539 
    0.470,2.053    -0.984,4.275   -3.068,4.646 
z"/>
   </g>
</svg>