<?xml version="1.0" encoding="utf-8"?>
<svg version="1.1" id="Layer_1"
 xmlns="http://www.w3.org/2000/svg"
  xmlns:xlink="http://www.w3.org/1999/xlink"
   viewBox="0 0 250 250"
	 style="enable-background:new 0 0 250 250;" 
	 >
<g>
<path id="path4909" class="st1"
stroke= '#B9976C' fill='none' stroke-width='2px' 
d="M248.8,123.8
c-0.2-0.1-0.4-0.2-0.5-0.3
c-3.1-0.9-4.8-2.5-5.9-4.3
c-1.1-1.9-1.6-4.2-2.1-6.7
c-0.4-2.1-0.8-4.3-1.8-6.3
c-1.2-2.6-3.4-4.6-5.6-5.8
c-1.8-1-3.2-2.8-3.5-4.7
c-1-6.5-4.9-9.4-8.2-10.6
c-2.1-0.8-3.8-2.3-4.3-4.2
c-1.7-6.7-5.1-10.9-9.1-13.4
c-4-2.5-8.4-3.2-12.3-3.3
c0,0-0.1,0-0.1,0
h-8.8
c-0.1-1.8-0.1-1.8-0.1-2.9
c-0.3-3.7-1.3-7.8-3.9-11.4
c-2.6-3.6-6.7-6.6-13-8.2
c-1.9-0.5-3.4-2.2-4.2-4.2
c-1.2-3.2-4.1-7-10.8-8.1
c-1.9-0.3-3.7-1.7-4.8-3.4
c-1.3-2.2-3.3-4.4-5.9-5.5
c-2-0.9-4.3-1.3-6.3-1.7
c-2.5-0.5-4.8-1-6.8-2
c-1.9-1-3.4-2.7-4.4-5.8
l0-0.1
c-0.1-0.2-0.3-0.6-0.7-0.8
c-0.2-0.1-0.4-0.2-0.7-0.1
h-0.2
c-0.2,0-0.4,0-0.7,0.1
c-0.4,0.2-0.6,0.5-0.7,0.8
l0,0.1
c-0.2,0.8-0.5,1.5-0.8,2.1
c-0.3,0.6-0.7,1.1-1,1.6
c-0.8,0.9-1.6,1.6-2.5,2.1
c-1.9,1.1-4.2,1.5-6.8,2
c-2.1,0.4-4.3,0.8-6.3,1.7
c-2.6,1.2-4.6,3.4-5.9,5.5
c-1.1,1.8-2.9,3.1-4.8,3.5
c-6.6,1-9.5,4.8-10.8,8.1
c-0.8,2.1-2.3,3.8-4.2,4.2
c-6.3,1.5-10.4,4.5-13,8.2
c-2.6,3.6-3.6,7.7-3.9,11.4
c-0.1,1.1,0,2.2,0,2.9
h-8.5
c-3.9,0-8.5,0.8-12.5,3.2
c-4.1,2.5-7.6,6.7-9.3,13.5
c-0.5,1.9-2.2,3.4-4.3,4.2
c-3.3,1.2-7.1,4.1-8.2,10.6
c-0.3,1.9-1.7,3.7-3.5,4.7
c-2.2,1.3-4.4,3.2-5.6,5.8
c-0.9,2-1.4,4.2-1.8,6.3
c-0.5,2.5-1,4.8-2.1,6.7
c-1.1,1.8-2.8,3.4-5.9,4.3
c-0.1,0.1-0.3,0.2-0.5,0.3
c-0.1,0.1-0.5,0.5-0.5,1.1
c0,0.6,0.4,1,0.5,1.1
c0.2,0.2,0.4,0.2,0.5,0.3
c3.1,0.9,4.8,2.5,5.9,4.3
c1.1,1.9,1.6,4.2,2.1,6.7
c0.4,2,0.8,4.3,1.8,6.3
c1.2,2.6,3.4,4.6,5.6,5.8
c1.8,1,3.2,2.8,3.5,4.7
c1,6.5,4.9,9.4,8.2,10.6
c2.1,0.8,3.8,2.3,4.3,4.2
c1.7,6.8,5.2,11,9.3,13.5
c4.1,2.5,8.7,3.2,12.5,3.2
h8.4
c0,1.9,0,0.7,0,3.1
c0.4,3.1,1.3,7.6,3.9,11.2
c2.6,3.6,6.7,6.6,13,8.1
c1.9,0.5,3.5,2.2,4.2,4.2
c1.2,3.3,4.1,7,10.8,8.1
c1.9,0.3,3.7,1.7,4.8,3.5
c1.3,2.1,3.3,4.3,5.9,5.5
c2,0.9,4.3,1.3,6.3,1.7
c2.5,0.5,4.8,1,6.8,2.1
c1.9,1,3.4,2.7,4.4,5.7
c0,0,0,0.1,0.1,0.2
c0,0,0,0,0,0.1
c0.1,0.2,0.3,0.5,0.6,0.7
c0.3,0.1,0.5,0.1,0.8,0.1
c0.1,0,0.1,0,0.2,0
c0.2,0,0.4,0,0.6-0.1
c0.4-0.2,0.6-0.5,0.7-0.8
l0-0.1
c1-3.1,2.5-4.7,4.4-5.8
c1.9-1.1,4.2-1.6,6.8-2
c2.1-0.4,4.3-0.8,6.3-1.7
c2.7-1.2,4.6-3.4,5.9-5.5
c1-1.8,2.9-3.2,4.8-3.5
c6.6-1,9.5-4.8,10.8-8.1
c0.8-2.1,2.3-3.8,4.2-4.2
c6.3-1.5,10.4-4.5,13-8.1
c2.6-3.6,3.6-7.7,3.9-11.4
l-0.1-3
h9
c0,0,0.1,0,0.1,0
c3.9-0.1,8.3-0.9,12.3-3.3
c4-2.5,7.4-6.7,9.1-13.4
c0.5-1.9,2.2-3.4,4.3-4.2
c3.3-1.2,7.1-4.1,8.2-10.6
c0.3-1.9,1.7-3.7,3.5-4.7
c2.2-1.2,4.4-3.2,5.6-5.8
c0.9-2,1.4-4.2,1.8-6.2
c0.5-2.5,1-4.8,2.1-6.7
c1.1-1.8,2.8-3.4,5.9-4.3
c0.1,0,0.3-0.1,0.5-0.3
c0.1-0.1,0.5-0.5,0.5-1.1
C249.3,124.3,248.9,124,248.8,123.8z" />
</g>
</svg>