<svg xmlns="http://www.w3.org/2000/svg"
   xmlns:sodipodi="http://sodipodi.sourceforge.net/DTD/sodipodi-0.dtd"
   xmlns:inkscape="http://www.inkscape.org/namespaces/inkscape" viewBox="0 0 100 100" sodipodi:docname="System.svg">
   <g transform="translate(-131,-253)">
      <path style="fill:#e0eaf1" d="m 207.05,353.29 -0.83,0.83 0,-1.66 0,-1.66 0.83,0.83 0.83,0.83 -0.83,0.83 z m -50.83,-5.83 -18.75,0 0,-43.75 0,-43.75 18.75,0 18.75,0 0,43.75 0,43.75 -18.75,0 z m 0,-12.5 3.25,0 1.5,-1.5 1.5,-1.5 0,-3.25 0,-3.25 -1.5,-1.5 -1.5,-1.5 -3.25,0 -3.25,0 -1.5,1.5 -1.5,1.5 0,3.25 0,3.25 1.5,1.5 1.5,1.5 3.25,0 z m 0,-43.75 12.5,0 0,-3.12 0,-3.12 -12.5,0 -12.5,0 0,3.12 0,3.12 12.5,0 z m 0,-12.5 12.5,0 0,-6.25 0,-6.25 -12.5,0 
		 -12.5,0 0,6.25 0,6.25 12.5,0 z"/>
      <path style="fill:#c1e7fe" d="m 203.10,328.71 -21.87,0 0,-28.12 0,-28.12 21.87,0 21.87,0 0,28.12 0,28.12 -21.87,0 z" />
      <path style="fill:#feeda2" d="m 215.60,334.96 -3.12,0 0,-3.12 0,-3.12 3.12,0 3.12,0 0,3.12 0,3.12 -3.12,0 z"/>
      <path style="fill:#b0c1d5" d="m 203.10,348.71 c -0.34,0 -0.62,-0.28 -0.62,-0.62 0,-0.34 0.28,-0.62 0.62,-0.62 0.34,0 0.62,0.28 0.62,0.62 0,0.34 -0.28,0.62 -0.62,0.62 z m -18.75,-1.25 -3.12,0 0,-3.12 0,-3.12 3.12,0 3.12,0 0,3.12 0,3.12 -3.12,0 z m -31.09,-12.5 c -0.25,0 -1.24,-0.98 -2.18,-2.18 l -1.71,-2.18 2.18,1.71 c 1.20,0.94 2.18,1.92 2.18,2.18 0,0.25 -0.21,0.47 -0.47,0.47 z m 5.79,0 c -0.34,0 0.07,-0.84 0.93,-1.87 0.85,-1.03 1.83,-1.87 2.18,-1.87 0.34,0 -0.07,0.84 -0.93,1.87 -0.85,1.03 -1.83,1.87 -2.18,1.87 z m -8.75,-8.75 c -0.34,0 0.07,-0.84 0.93,-1.87 0.85,-1.03 1.83,-1.87 2.18,-1.87 0.34,0 -0.07,0.84 -0.93,1.87 -0.85,1.03 -1.83,1.87 -2.18,1.87 z m 11.70,0 c -0.25,0 -1.24,-0.98 -2.18,-2.18 l -1.71,-2.18 2.18,1.71 c 1.20,0.94 2.18,1.92 2.18,2.18 0,0.25 -0.21,0.47 -0.47,0.47 z"/>
      <path style="fill:#7394bf" d="m 205.74,351.21 c -0.34,0 -0.97,-0.56 -1.39,-1.25 -0.42,-0.68 -0.49,-1.25 -0.14,-1.25 0.34,0 0.97,0.56 1.39,1.25 0.42,0.68 0.49,1.25 0.14,1.25 z m -3.89,-2.5 c -0.34,0 -0.62,-0.28 -0.62,-0.62 0,-0.34 0.28,-0.62 0.62,-0.62 0.34,0 0.62,0.28 0.62,0.62 0,0.34 -0.28,0.62 -0.62,0.62 z m -47.5,-13.75 c -0.34,0 -0.62,-0.28 -0.62,-0.62 0,-0.34 0.28,-0.62 0.62,-0.62 0.34,0 0.62,0.28 0.62,0.62 0,0.34 -0.28,0.62 -0.62,0.62 z m 3.75,0 c -0.34,0 -0.62,-0.28 -0.62,-0.62 0,-0.34 0.28,-0.62 0.62,-0.62 0.34,0 0.62,0.28 0.62,0.62 0,0.34 -0.28,0.62 -0.62,0.62 z m -7.5,-3.75 c -0.34,0 -0.62,-0.28 -0.62,-0.62 0,-0.34 0.28,-0.62 0.62,-0.62 0.34,0 0.62,0.28 0.62,0.62 0,0.34 -0.28,0.62 -0.62,0.62 z m 11.25,0 c -0.34,0 -0.62,-0.28 -0.62,-0.62 0,-0.34 0.28,-0.62 0.62,-0.62 0.34,0 0.62,0.28 0.62,0.62 0,0.34 -0.28,0.62 -0.62,0.62 z m -11.25,-3.75 c -0.34,0 -0.62,-0.28 -0.62,-0.62 0,-0.34 0.28,-0.62 0.62,-0.62 0.34,0 0.62,0.28 0.62,0.62 0,0.34 -0.28,0.62 -0.62,0.62 z m 11.25,0 c -0.34,0 -0.62,-0.28 -0.62,-0.62 0,-0.34 0.28,-0.62 0.62,-0.62 0.34,0 0.62,0.28 0.62,0.62 0,0.34 -0.28,0.62 -0.62,0.62 z m -7.5,-3.75 c -0.34,0 -0.62,-0.28 -0.62,-0.62 0,-0.34 0.28,-0.62 0.62,-0.62 0.34,0 0.62,0.28 0.62,0.62 0,0.34 -0.28,0.62 -0.62,0.62 z m 3.75,0 c -0.34,0 -0.62,-0.28 -0.62,-0.62 0,-0.34 0.28,-0.62 0.62,-0.62 0.34,0 0.62,0.28 0.62,0.62 0,0.34 -0.28,0.62 -0.62,0.62 z"/>
      <path style="fill:#4d79b4" d="m 156.22,334.96 c -0.68,0 -2.37,-1.12 -3.75,-2.5 -1.37,-1.37 -2.5,-3.06 -2.5,-3.75 0,-0.68 1.12,-2.37 2.5,-3.75 1.37,-1.37 3.06,-2.5 3.75,-2.5 0.68,0 2.37,1.12 3.75,2.5 1.37,1.37 2.5,3.06 2.5,3.75 0,0.68 -1.12,2.37 -2.5,3.75 -1.37,1.37 -3.06,2.5 -3.75,2.5 z"/>
      <path style="fill:#65788e" d="m 168.72,353.71 -37.5,0 0,-50 0,-50 25,0 25,0 0,6.25 0,6.25 25,0 25,0 0,37.5 0,37.5 -18.75,0 -18.75,0 0,3.12 0,3.12 3.47,0 3.47,0 2.77,1.94 c 1.52,1.07 2.77,2.47 2.77,3.12 l 0,1.17 -37.5,0 z m -12.5,-6.25 18.75,0 0,-43.75 0,-43.75 -18.75,0 -18.75,0 0,43.75 0,43.75 18.75,0 z m 0,-56.25 -12.5,0 0,-3.12 0,-3.12 12.5,0 12.5,0 0,3.12 0,3.12 -12.5,0 z m 0,-12.5 -12.5,0 0,-6.25 0,-6.25 12.5,0 12.5,0 0,6.25 0,6.25 -12.5,0 z m 28.12,68.75 3.12,0 0,-3.12 0,-3.12 -3.12,0 -3.12,0 0,3.12 0,3.12 3.12,0 z m 31.25,-12.5 3.12,0 0,-3.12 0,-3.12 3.12,0 3.12,0 0,-28.12 0,-28.12 -21.87,0 -21.87,0 0,28.12 0,28.12 15.62,0 15.62,0 0,3.12 0,3.12 3.12,0 z"/>
   </g>
</svg>
