<?xml version="1.0" encoding="iso-8859-1"?>
<!-- Generator: Adobe Illustrator 19.0.0, SVG Export Plug-In . SVG Version: 6.00 Build 0)  -->
<svg version="1.1" id="Layer_1" xmlns="http://www.w3.org/2000/svg" xmlns:xlink="http://www.w3.org/1999/xlink" x="0px" y="0px"
	 viewBox="0 0 512 512" style="enable-background:new 0 0 512 512;" xml:space="preserve">
<g>
	<g>
		<path d="M461.265,259.477l-196.534,0.036l0.038,201.738l196.533-0.036L461.265,259.477z M295.149,289.92l24.961-0.004
			l0.005,26.695l-24.961,0.004L295.149,289.92z M295.161,347.03l24.961-0.004l0.005,26.695l-24.961,0.005L295.161,347.03z
			 M295.176,430.834l-0.005-26.695l24.961-0.005l0.005,26.695L295.176,430.834z M350.523,289.911l24.961-0.004l0.005,26.695
			l-24.961,0.004L350.523,289.911z M350.534,347.02l24.961-0.004l0.005,26.695l-24.961,0.004L350.534,347.02z M350.549,430.823
			l-0.005-26.695l24.961-0.004l0.005,26.695L350.549,430.823z M405.897,289.9l24.961-0.005l0.005,26.697l-24.961,0.004
			L405.897,289.9z M405.908,347.009l24.961-0.004l0.005,26.695l-24.96,0.005L405.908,347.009z M405.923,430.813l-0.005-26.695
			l24.96-0.005l0.005,26.695L405.923,430.813z"/>
	</g>
</g>
<g>
	<g>
		<path d="M461.247,161.142l-196.534,0.036l0.015,78.06l196.534-0.036L461.247,161.142z M295.135,208.82l-0.003-17.234
			l135.708-0.024l0.003,17.234L295.135,208.82z"/>
	</g>
</g>
<g>
	<g>
		<path d="M511.927,110.445l-241.723,0.045c3.259-5.751,7.046-13.61,7.045-26.685c-0.003-14.569-4.709-22.669-8.145-28.583
			c-2.597-4.47-4.028-6.932-4.029-13.312c-0.001-6.379,1.428-8.842,4.024-13.313c3.435-5.915,8.136-14.016,8.133-28.586
			l-30.413,0.006c0.001,6.379-1.428,8.842-4.024,13.313c-3.435,5.915-8.136,14.016-8.133,28.586
			c0.003,14.569,4.709,22.669,8.145,28.583c2.597,4.47,4.028,6.932,4.029,13.311c0.001,6.377-1.428,8.839-4.024,13.309
			c-1.996,3.438-4.414,7.625-6.095,13.379l-26.159,0.005c-1.611-12.71-7.332-24.464-16.541-33.669
			c-10.973-10.969-25.559-17.009-41.075-17.009c-0.003,0-0.007,0-0.01,0l-44.156,0.008c-15.519,0.003-30.106,6.048-41.079,17.024
			c-9.205,9.208-14.922,20.965-16.528,33.674L0,110.539l0.073,401.449L512,511.895L511.927,110.445z M180.682,403.171
			c0,0.472-0.012,0.943-0.035,1.409c-0.004,0.075-0.012,0.149-0.016,0.223c-0.023,0.397-0.051,0.795-0.09,1.188
			c-0.002,0.021-0.005,0.042-0.008,0.063c-1.34,12.916-11.598,23.22-24.493,24.636c-0.078,0.008-0.155,0.02-0.232,0.028
			c-0.3,0.03-0.603,0.049-0.905,0.069c-0.169,0.011-0.338,0.028-0.507,0.038c-0.167,0.008-0.337,0.008-0.505,0.013
			c-0.296,0.009-0.591,0.021-0.888,0.021l-44.156,0.009c-0.001,0-0.002,0-0.004,0c-14.309,0-26.12-10.913-27.543-24.854
			c-0.095-0.93-0.144-1.872-0.144-2.826l-0.033-185.54l99.527-0.018L180.682,403.171z M108.783,90.245l44.157-0.009
			c0.001,0,0.002,0,0.004,0c15.264,0,27.683,12.417,27.686,27.681l0.013,69.301l-99.527,0.018l-0.012-69.316
			C81.107,102.662,93.521,90.247,108.783,90.245z M30.48,481.57l-0.062-340.624l20.274-0.003l0.049,262.25
			c0.005,32.033,26.066,58.09,58.1,58.088c0.002,0,0.008,0,0.01,0l44.156-0.008c0.311,0,0.618-0.019,0.929-0.023
			c0.672-0.01,1.345-0.018,2.014-0.052c0.245-0.012,0.488-0.039,0.732-0.054c0.746-0.047,1.492-0.096,2.232-0.17
			c0.091-0.009,0.182-0.024,0.274-0.033c13.181-1.388,25.397-7.187,34.899-16.692c9.552-9.555,15.362-21.851,16.705-35.113
			c0.001-0.014,0.004-0.029,0.005-0.044c0.086-0.861,0.149-1.726,0.198-2.594c0.007-0.124,0.021-0.245,0.027-0.37
			c0.049-0.983,0.075-1.972,0.075-2.963l-0.048-262.25l270.474-0.05l0.062,340.624L30.48,481.57z"/>
	</g>
</g>
<g>
</g>
<g>
</g>
<g>
</g>
<g>
</g>
<g>
</g>
<g>
</g>
<g>
</g>
<g>
</g>
<g>
</g>
<g>
</g>
<g>
</g>
<g>
</g>
<g>
</g>
<g>
</g>
<g>
</g>
</svg>
